<svg data-v-70b83f88="" version="1.0" xmlns="http://www.w3.org/2000/svg" xmlns:xlink="http://www.w3.org/1999/xlink" width="100%" height="100%" viewBox="0 0 340.000000 250.000000" preserveAspectRatio="xMidYMid meet" color-interpolation-filters="sRGB" style="margin: auto;"> <rect data-v-70b83f88="" x="0" y="0" width="100%" height="100%" fill="#2c3e50" fill-opacity="1" class="background"></rect> <rect data-v-70b83f88="" x="0" y="0" width="100%" height="100%" fill="url(#watermark)" fill-opacity="1" class="watermarklayer"></rect> <g data-v-70b83f88="" fill="#ffffff" class="icon-text-wrapper icon-svg-group iconsvg" transform="translate(47.3699951171875,90.36236572265625)"><g class="iconsvg-imagesvg" transform="translate(0,0)"><g><rect fill="#ffffff" fill-opacity="0" stroke-width="2" x="0" y="0" width="60.00000000000001" height="69.27526526653659" class="image-rect"></rect> <svg filter="url(#colors4500310515)" x="0" y="0" width="60.00000000000001" height="69.27526526653659" filtersec="colorsf8098485305" class="image-svg-svg primary" style="overflow: visible;"><svg xmlns="http://www.w3.org/2000/svg" viewBox="0 0.2999999999999998 97.8 112.3"><path d="M2 29.4L48.9 2.3l46.9 27.1v54.1l-46.9 27.1L2 83.5V29.4zm23.4 13.5l23.4 13.5 23.4-13.5V15.8L48.9 2.3 25.4 15.8v27.1zm0 54.1l23.4 13.5L72.3 97V69.9L48.9 56.4 25.4 69.9V97z" fill="none" stroke="#202121" stroke-width="4" stroke-miterlimit="10"></path></svg></svg> <defs><filter id="colors4500310515"><feColorMatrix type="matrix" values="0 0 0 0 0.99609375  0 0 0 0 0.99609375  0 0 0 0 0.99609375  0 0 0 1 0" class="icon-fecolormatrix"></feColorMatrix></filter> <filter id="colorsf8098485305"><feColorMatrix type="matrix" values="0 0 0 0 0.99609375  0 0 0 0 0.99609375  0 0 0 0 0.99609375  0 0 0 1 0" class="icon-fecolormatrix"></feColorMatrix></filter> <filter id="colorsb7033311167"><feColorMatrix type="matrix" values="0 0 0 0 0  0 0 0 0 0  0 0 0 0 0  0 0 0 1 0" class="icon-fecolormatrix"></feColorMatrix></filter></defs></g></g> <g transform="translate(67,25.56763458251953)"><g data-gra="path-name" fill-rule="" class="tp-name iconsvg-namesvg"><g transform="scale(1)"><g><path d="M2.2-10.48L13.68-10.48 12.64-2.76Q12.59-2.44 12.42-2.18 12.25-1.91 12-1.72 11.75-1.52 11.47-1.41 11.2-1.31 10.96-1.31L10.96-1.31 5.76-1.31 5.05 3.26 0.87 3.26 2.81-9.85 2.2-10.48ZM9.29-8.4L6.79-8.4 6-3.2 8.53-3.2 9.29-8.4ZM16.21-10.48L20.43-10.48 20.01-7.57 22.95-10.48 27.13-10.48 20.01-4.22 19.6-1.31 15.42-1.31 16.64-9.88 16.21-10.48ZM28.71-10.48L38.11-10.48Q38.74-10.48 39.06-9.97 39.37-9.46 39.37-8.83L39.37-8.83 38.33-1.31 28.93-1.31Q28.3-1.31 27.98-1.72 27.67-2.13 27.67-2.76L27.67-2.76 28.71-10.48ZM35.2-8.4L32.67-8.4 31.85-3.39 34.35-3.39 35.2-8.4ZM42.37 1.17L48.01 1.17 48.42-1.31 41.74-1.31 42.98-10.48 53.86-10.48 52.18 1.81Q52.1 2.44 51.62 2.85 51.14 3.26 50.51 3.26L50.51 3.26 41.11 3.26 41.53 0.35 42.37 1.17ZM49.46-8.4L46.96-8.4 46.18-3.42 48.64-3.42 49.46-8.4ZM56.38-10.48L60.6-10.48 60.19-7.57 63.13-10.48 67.3-10.48 60.19-4.22 59.78-1.31 55.6-1.31 56.82-9.88 56.38-10.48ZM74.74-6.74L75.07-8.4 72.85-8.4 72.65-7.57 68.48-7.57 69.11-10.48 79.33-10.48 78.07-2.35 78.92-1.31 69.11-1.31Q68.48-1.31 68.16-1.72 67.85-2.13 67.85-2.76L67.85-2.76 68.48-6.74 74.74-6.74ZM74.33-4.65L72.24-4.65 72.02-3.39 74.11-3.39 74.33-4.65ZM81.79-10.48L96.41-10.48 95.17-1.31 91.4-1.31 92.45-8.4 90.77-8.4 89.73-1.31 86.4-1.31 87.47-8.4 85.81-8.4 84.73-1.31 80.96-1.31 82.22-9.88 81.79-10.48ZM98.97-10.48L113.59-10.48 112.35-1.31 108.59-1.31 109.63-8.4 107.96-8.4 106.91-1.31 103.58-1.31 104.65-8.4 103-8.4 101.91-1.31 98.15-1.31 99.41-9.88 98.97-10.48ZM127.23-10.48L126.4-5.07 119.72-5.07 119.51-3.39 125.36-3.39 126.4-4.22 125.77-1.31 116.59-1.31Q115.96-1.31 115.65-1.72 115.33-2.13 115.33-2.76L115.33-2.76 116.37-10.48 127.23-10.48ZM122.86-8.4L120.33-8.4 120.14-7.16 122.64-7.16 122.86-8.4ZM129.75-10.48L133.97-10.48 133.56-7.57 136.5-10.48 140.67-10.48 133.56-4.22 133.15-1.31 128.97-1.31 130.19-9.88 129.75-10.48ZM147.05-8.4L141.61-8.4 142.04-10.48 151.85-10.48 151.64-8.4 145.78-3.39 151-3.39 150.59-1.31 140.78-1.31 141-3.39 147.05-8.4ZM154.62-14.88L159.2-14.88 158.6-10.48 165.27-10.48 164.23-2.76Q164.06-2.13 163.62-1.72 163.19-1.31 162.55-1.31L162.55-1.31 153.16-1.31 155.03-14.25 154.62-14.88ZM160.88-8.4L158.38-8.4 157.66-3.39 160.14-3.39 160.88-8.4ZM168.47-14.88L173.06-14.88 172.45-10.48 179.13-10.48 178.09-2.76Q177.91-2.13 177.48-1.72 177.04-1.31 176.41-1.31L176.41-1.31 167.01-1.31 168.88-14.25 168.47-14.88ZM174.74-8.4L172.23-8.4 171.52-3.39 174-3.39 174.74-8.4Z" transform="translate(-0.8700000047683716, 14.880000114440918)"></path></g> <!----> <!----> <!----> <!----> <!----> <!----> <!----></g></g> <!----></g></g><defs v-gra="od"></defs></svg>